HIERARCHY
ROOT Hips
{
	OFFSET 0.00000 0.00000 0.00000
	CHANNELS 6 Xposition Yposition Zposition Zrotation Yrotation Xrotation 
	JOINT LHipJoint
	{
		OFFSET 0 0 0
		CHANNELS 3 Zrotation Yrotation Xrotation
		JOINT LeftUpLeg
		{
			OFFSET 1.53794 -1.55850 0.93568
			CHANNELS 3 Zrotation Yrotation Xrotation
			JOINT LeftLeg
			{
				OFFSET 2.28545 -6.27922 0.00000
				CHANNELS 3 Zrotation Yrotation Xrotation
				JOINT LeftFoot
				{
					OFFSET 2.37329 -6.52057 0.00000
					CHANNELS 3 Zrotation Yrotation Xrotation
					JOINT LeftToeBase
					{
						OFFSET 0.14846 -0.40788 2.09160
						CHANNELS 3 Zrotation Yrotation Xrotation
						End Site
						{
							OFFSET 0.00000 -0.00000 1.07536
						}
					}
				}
			}
		}
	}
	JOINT RHipJoint
	{
		OFFSET 0 0 0
		CHANNELS 3 Zrotation Yrotation Xrotation
		JOINT RightUpLeg
		{
			OFFSET -1.78290 -1.55850 0.93568
			CHANNELS 3 Zrotation Yrotation Xrotation
			JOINT RightLeg
			{
				OFFSET -2.24144 -6.15831 0.00000
				CHANNELS 3 Zrotation Yrotation Xrotation
				JOINT RightFoot
				{
					OFFSET -2.35091 -6.45907 0.00000
					CHANNELS 3 Zrotation Yrotation Xrotation
					JOINT RightToeBase
					{
						OFFSET -0.14428 -0.39641 2.07944
						CHANNELS 3 Zrotation Yrotation Xrotation
						End Site
						{
							OFFSET -0.00000 -0.00000 1.06864
						}
					}
				}
			}
		}
	}
	JOINT LowerBack
	{
		OFFSET 0 0 0
		CHANNELS 3 Zrotation Yrotation Xrotation
		JOINT Spine
		{
			OFFSET -0.08841 2.11430 -0.15818
			CHANNELS 3 Zrotation Yrotation Xrotation
			JOINT Spine1
			{
				OFFSET -0.00033 2.12605 -0.08097
				CHANNELS 3 Zrotation Yrotation Xrotation
				JOINT Neck
				{
					OFFSET 0 0 0
					CHANNELS 3 Zrotation Yrotation Xrotation
					JOINT Neck1
					{
						OFFSET 0.04431 1.59447 0.43193
						CHANNELS 3 Zrotation Yrotation Xrotation
						JOINT Head
						{
							OFFSET 0.00455 1.62017 -0.58852
							CHANNELS 3 Zrotation Yrotation Xrotation
							End Site
							{
								OFFSET -0.00920 1.72955 -0.25850
							}
						}
					}
				}
				JOINT LeftShoulder
				{
					OFFSET 0 0 0
					CHANNELS 3 Zrotation Yrotation Xrotation
					JOINT LeftArm
					{
						OFFSET 2.86490 1.49927 -0.33774
						CHANNELS 3 Zrotation Yrotation Xrotation
						JOINT LeftForeArm
						{
							OFFSET 4.87408 -0.00000 0.00000
							CHANNELS 3 Zrotation Yrotation Xrotation
							JOINT LeftHand
							{
								OFFSET 2.76729 -0.00000 0.00000
								CHANNELS 3 Zrotation Yrotation Xrotation
								JOINT LeftFingerBase
								{
									OFFSET 0 0 0
									CHANNELS 3 Zrotation Yrotation Xrotation
									JOINT LeftHandIndex1
									{
										OFFSET 0.98922 -0.00000 0.00000
										CHANNELS 3 Zrotation Yrotation Xrotation
										End Site
										{
											OFFSET 0.79753 -0.00000 0.00000
										}
									}
								}
								JOINT LThumb
								{
									OFFSET 0 0 0
									CHANNELS 3 Zrotation Yrotation Xrotation
									End Site
									{
										OFFSET 0.80972 -0.00000 0.80972
									}
								}
							}
						}
					}
				}
				JOINT RightShoulder
				{
					OFFSET 0 0 0
					CHANNELS 3 Zrotation Yrotation Xrotation
					JOINT RightArm
					{
						OFFSET -2.94414 1.45463 -0.25291
						CHANNELS 3 Zrotation Yrotation Xrotation
						JOINT RightForeArm
						{
							OFFSET -4.71404 -0.00000 0.00000
							CHANNELS 3 Zrotation Yrotation Xrotation
							JOINT RightHand
							{
								OFFSET -2.83468 -0.00000 0.00000
								CHANNELS 3 Zrotation Yrotation Xrotation
								JOINT RightFingerBase
								{
									OFFSET 0 0 0
									CHANNELS 3 Zrotation Yrotation Xrotation
									JOINT RightHandIndex1
									{
										OFFSET -0.86820 -0.00000 0.00000
										CHANNELS 3 Zrotation Yrotation Xrotation
										End Site
										{
											OFFSET -0.69996 -0.00000 0.00000
										}
									}
								}
								JOINT RThumb
								{
									OFFSET 0 0 0
									CHANNELS 3 Zrotation Yrotation Xrotation
									End Site
									{
										OFFSET -0.71065 -0.00000 0.71065
									}
								}
							}
						}
					}
				}
			}
		}
	}
}
MOTION
Frames: 13
Frame Time: .0083333
0.9927 15.6866 -1.5948 -178.9440 5.1676 -172.6250 0.0000 0.0000 0.0000 -12.1994 -9.3593 -40.5637 20.0382 20.0000 90.1117 -1.0480 22.1938 6.0834 0.0134 -0.7483 -2.0566 0.0000 0.0000 0.0000 27.7235 6.6440 -0.7715 -3.3914 -11.3032 33.3093 0.5204 -13.3333 -9.4253 -3.4452 11.3831 -33.5831 1.3694 3.9396 0.3641 -0.2940 5.2589 0.4067 -1.0591 2.6357 0.3636 -0.4829 1.5386 -30.7077 1.5145 -4.5995 46.7072 -1.3328 -2.9765 29.3901 -0.0000 -0.0000 0.0000 -67.1468 32.9410 55.3550 115.3004 -57.4375 -81.7223 -0.0000 -0.0000 17.1526 13.6309 5.6289 1.3625 -7.1250 0.0000 -0.0000 -10.8910 35.5924 2.5556 -0.0000 -0.0000 0.0000 83.0796 -8.6499 47.1698 -102.3120 59.4194 -70.6417 0.0000 0.0000 7.6477 -15.5601 -2.2341 0.6219 7.1250 -0.0000 -0.0000 8.8737 -32.2143 2.8065
0.9995 15.7820 -1.9839 -178.9130 4.9161 -172.3170 0.0000 0.0000 0.0000 -11.9694 -10.4885 -41.7337 18.9591 19.9740 86.9553 -1.0788 22.3863 5.9975 0.0191 -0.8927 -2.4537 0.0000 0.0000 0.0000 27.5346 5.6164 0.6441 -3.0627 -10.7959 31.5946 0.4969 -12.5126 -6.6124 -3.5533 11.5409 -34.1267 1.3804 4.3130 -0.0088 -0.4103 5.7506 0.1968 -1.1598 2.8798 0.3841 -0.7803 1.1928 -30.5464 1.9919 -5.4429 46.8337 -1.2526 -3.2665 29.6269 -0.0000 0.0000 0.0000 -66.1276 33.3005 56.2211 116.4013 -57.1950 -82.6489 -0.0000 -0.0000 17.2263 13.6486 5.2556 1.2742 -7.1250 0.0000 -0.0000 -10.8181 35.2165 2.6387 -0.0000 0.0000 0.0000 82.9573 -8.2974 47.9239 -103.8141 59.2665 -71.9339 0.0000 0.0000 7.5530 -15.3222 -2.0971 0.5744 7.1250 -0.0000 -0.0000 9.0486 -32.0677 2.8953
1.0059 15.8819 -2.3794 -178.9340 4.6008 -172.0000 0.0000 0.0000 0.0000 -11.8147 -11.5916 -42.6640 17.7518 19.8784 83.4140 -1.0914 22.4998 6.0153 0.0240 -0.9993 -2.7468 0.0000 0.0000 0.0000 27.2762 4.5905 2.0736 -2.7251 -10.2362 29.7451 0.4512 -11.8333 -3.4933 -3.6076 11.6190 -34.3972 1.3619 4.6310 -0.4337 -0.5569 6.1696 0.0048 -1.2661 3.0886 0.4515 -1.0633 0.8618 -30.4342 2.4663 -6.2496 46.9190 -1.1623 -3.5382 29.8589 0.0000 -0.0000 0.0000 -65.1310 33.6455 56.9943 117.4741 -56.9463 -83.5493 -0.0000 -0.0000 17.3331 13.6486 4.9089 1.1904 -7.1250 0.0000 -0.0000 -10.7650 34.8664 2.7186 0.0000 -0.0000 0.0000 82.7835 -8.0175 48.6813 -105.2501 59.1028 -73.1671 0.0000 0.0000 7.5330 -15.0530 -1.9002 0.5109 7.1250 -0.0000 -0.0000 9.2412 -31.8595 3.0053
1.0127 15.9836 -2.7803 -179.0110 4.2402 -171.6900 0.0000 0.0000 0.0000 -11.7468 -12.6422 -43.3430 16.4350 19.6925 79.5251 -1.0754 22.4703 6.1601 0.0276 -1.0726 -2.9485 0.0000 0.0000 0.0000 26.9634 3.6106 3.5427 -2.3875 -9.6304 27.7879 0.3699 -11.3686 -0.0926 -3.5956 11.6019 -34.3379 1.3078 4.8982 -0.8757 -0.7391 6.5231 -0.1784 -1.3840 3.2655 0.5368 -1.3137 0.5477 -30.3200 2.9246 -7.0184 46.9624 -1.0722 -3.7912 30.0416 0.0000 -0.0000 0.0000 -64.1403 34.0045 57.6848 118.5390 -56.6868 -84.4406 -0.0000 -0.0000 17.4320 13.6169 4.5967 1.1122 -7.1250 0.0000 -0.0000 -10.7442 34.5496 2.7973 0.0000 -0.0000 0.0000 82.5692 -7.8145 49.4584 -106.5891 58.9342 -74.3152 0.0000 0.0000 7.5553 -14.7868 -1.6654 0.4395 7.1250 -0.0000 -0.0000 9.4267 -31.6134 3.1236
1.0197 16.0855 -3.1863 -179.1560 3.8389 -171.3840 0.0000 0.0000 0.0000 -11.7786 -13.6442 -43.7690 15.0290 19.3969 75.3239 -1.0217 22.2356 6.4502 0.0294 -1.1073 -3.0440 0.0000 0.0000 0.0000 26.6076 2.7381 5.0507 -2.0620 -8.9941 25.7769 0.2398 -11.2081 3.5157 -3.4947 11.4558 -33.8328 1.1992 5.1158 -1.3596 -0.9490 6.8140 -0.3453 -1.4931 3.4122 0.6584 -1.5452 0.2444 -30.2102 3.3552 -7.7432 46.9706 -0.9866 -4.0274 30.1811 0.0000 -0.0000 0.0000 -63.1774 34.3697 58.2964 119.5597 -56.4261 -85.2923 -0.0000 -0.0000 17.4834 13.5941 4.2756 1.0328 -7.1250 0.0000 -0.0000 -10.7158 34.2243 2.8757 0.0000 -0.0000 0.0000 82.3102 -7.6882 50.2450 -107.8455 58.7618 -75.3904 0.0000 0.0000 7.6090 -14.5435 -1.4062 0.3648 7.1250 -0.0000 -0.0000 9.5909 -31.3438 3.2424
1.0274 16.1850 -3.5951 -179.3560 3.4217 -171.0830 0.0000 0.0000 0.0000 -11.8999 -14.5769 -43.9471 13.5605 18.9753 70.8575 -0.9213 21.7216 6.9022 0.0310 -1.1374 -3.1270 0.0000 0.0000 0.0000 26.2388 2.0224 6.5772 -1.7639 -8.3560 23.8006 0.0481 -11.3655 7.2430 -3.3152 11.1886 -32.9188 1.0398 5.2940 -1.8474 -1.1849 7.0574 -0.5112 -1.5988 3.5360 0.7792 -1.7622 -0.0473 -30.0688 3.7640 -8.4320 46.9538 -0.9038 -4.2529 30.2673 -0.0000 -0.0000 0.0000 -62.2176 34.7547 58.8594 120.5615 -56.1585 -86.1257 -0.0000 -0.0000 17.5040 13.5146 4.0083 0.9625 -7.1250 0.0000 -0.0000 -10.7417 33.9510 2.9553 -0.0000 -0.0000 0.0000 82.0157 -7.6567 51.0259 -109.0492 58.5835 -76.4186 0.0000 0.0000 7.6479 -14.2695 -1.1353 0.2887 7.1250 -0.0000 -0.0000 9.7775 -31.0625 3.3740
1.0358 16.2807 -4.0067 -179.6000 3.0161 -170.7790 0.0000 0.0000 0.0000 -12.0932 -15.4280 -43.8962 12.0597 18.4158 66.1780 -0.7735 20.8653 7.4876 0.0335 -1.1816 -3.2485 0.0000 0.0000 0.0000 25.8837 1.5029 8.0732 -1.5077 -7.7550 21.9723 -0.2106 -11.8247 10.9904 -3.0533 10.7809 -31.5445 0.8287 5.4395 -2.3579 -1.4376 7.2637 -0.6746 -1.6897 3.6424 0.9101 -1.9280 -0.3108 -29.9118 4.1232 -9.0707 46.9291 -0.8469 -4.4585 30.3218 0.0000 -0.0000 0.0000 -61.2787 35.1642 59.3777 121.5380 -55.8860 -86.9355 -0.0000 -0.0000 17.4722 13.4285 3.7597 0.8970 -7.1250 0.0000 -0.0000 -10.7761 33.6968 3.0326 0.0000 -0.0000 0.0000 81.6843 -7.7258 51.8010 -110.2131 58.3985 -77.4109 0.0000 0.0000 7.6845 -14.0146 -0.8646 0.2158 7.1250 -0.0000 -0.0000 9.9485 -30.7826 3.5024
1.0449 16.3710 -4.4198 -179.8580 2.6323 -170.4690 0.0000 0.0000 0.0000 -12.3215 -16.1891 -43.6403 10.5614 17.7137 61.3489 -0.5893 19.6446 8.1385 0.0383 -1.2633 -3.4737 0.0000 0.0000 0.0000 25.5786 1.1807 9.4631 -1.3063 -7.2401 20.4287 -0.5335 -12.5307 14.6675 -2.7112 10.2121 -29.6664 0.5778 5.5572 -2.8804 -1.6855 7.4396 -0.8357 -1.7520 3.7346 1.0431 -2.1184 -0.5684 -29.7296 4.4758 -9.6704 46.8879 -0.7751 -4.6601 30.3419 0.0000 0.0000 0.0000 -60.3836 35.5737 59.8619 122.4820 -55.6115 -87.7157 -0.0000 -0.0000 17.4554 13.3217 3.5940 0.8504 -7.1250 0.0000 -0.0000 -10.8390 33.5254 3.0966 0.0000 0.0000 0.0000 81.3139 -7.9031 52.5568 -111.3775 58.2008 -78.4016 0.0000 0.0000 7.6680 -13.7371 -0.5929 0.1449 7.1250 -0.0000 -0.0000 10.1366 -30.5022 3.6396
1.0546 16.4556 -4.8339 -180.1250 2.2882 -170.1450 0.0000 0.0000 0.0000 -12.5813 -16.8483 -43.2100 9.1012 16.8724 56.4395 -0.3856 18.0720 8.7931 0.0466 -1.3929 -3.8306 0.0000 0.0000 0.0000 25.3212 1.0331 10.6559 -1.1679 -6.8600 19.3011 -0.9113 -13.4354 18.2129 -2.3039 9.4724 -27.2845 0.2852 5.6520 -3.4276 -1.9242 7.5927 -0.9883 -1.7788 3.8163 1.1910 -2.3170 -0.7980 -29.5391 4.8240 -10.2350 46.8590 -0.6959 -4.8582 30.3914 -0.0000 0.0000 0.0000 -59.5516 35.9518 60.3148 123.3647 -55.3446 -88.4430 -0.0000 -0.0000 17.4136 13.2197 3.4813 0.8172 -7.1250 0.0000 -0.0000 -10.9052 33.4080 3.1477 -0.0000 0.0000 0.0000 80.9084 -8.1691 53.2851 -112.5304 57.9923 -79.3804 0.0000 0.0000 7.6123 -13.4458 -0.3224 0.0771 7.1250 -0.0000 -0.0000 10.3351 -30.2238 3.7829
1.0645 16.5322 -5.2476 -180.3470 1.9899 -169.8130 0.0000 0.0000 0.0000 -12.8168 -17.3864 -42.6439 7.7195 15.9090 51.5461 -0.1865 16.2220 9.3728 0.0605 -1.5877 -4.3674 0.0000 0.0000 0.0000 25.1607 1.0269 11.5802 -1.0957 -6.6519 18.6881 -1.3141 -14.4518 21.4577 -1.9116 8.6796 -24.7980 -0.0033 5.7292 -3.9825 -2.1286 7.7271 -1.1303 -1.7710 3.8889 1.3485 -2.5374 -1.0114 -29.3808 5.1553 -10.7497 46.8305 -0.6088 -5.0472 30.4705 -0.0000 0.0000 0.0000 -58.8097 36.2833 60.7293 124.1973 -55.0836 -89.1269 -0.0000 -0.0000 17.4516 13.0941 3.4596 0.8042 -7.1250 0.0000 -0.0000 -11.0032 33.3816 3.1840 -0.0000 0.0000 0.0000 80.4741 -8.5076 53.9645 -113.6327 57.7807 -80.3141 0.0000 0.0000 7.5737 -13.1513 -0.0431 0.0101 7.1250 -0.0000 -0.0000 10.5344 -29.9373 3.9314
1.0741 16.5996 -5.6605 -180.5110 1.7456 -169.4840 0.0000 0.0000 0.0000 -13.0223 -17.8051 -41.9649 6.4545 14.8548 46.7798 -0.0177 14.2651 9.8071 0.0840 -1.8695 -5.1452 0.0000 0.0000 0.0000 25.0881 1.1067 12.1992 -1.0895 -6.6336 18.6342 -1.7035 -15.5699 24.2723 -1.5568 7.8745 -22.3337 -0.2671 5.7916 -4.5247 -2.2987 7.8446 -1.2687 -1.7428 3.9531 1.5001 -2.7709 -1.2054 -29.2330 5.4758 -11.2147 46.7981 -0.5103 -5.2259 30.5555 0.0000 0.0000 0.0000 -58.1602 36.5679 61.1222 124.9678 -54.8339 -89.7577 -0.0000 -0.0000 17.5031 12.9860 3.4910 0.8045 -7.1250 0.0000 -0.0000 -11.0945 33.4092 3.2038 0.0000 0.0000 0.0000 80.0470 -8.9193 54.5861 -114.6437 57.5760 -81.1684 0.0000 0.0000 7.5535 -12.8774 0.2294 -0.0525 7.1250 -0.0000 -0.0000 10.7178 -29.6588 4.0745
1.0829 16.6559 -6.0725 -180.5800 1.5555 -169.1770 0.0000 0.0000 0.0000 -13.1615 -18.1134 -41.2004 5.3424 13.7594 42.2819 0.1180 12.4546 10.2381 0.1199 -2.2320 -6.1473 0.0000 0.0000 0.0000 25.1214 1.2211 12.5195 -1.1484 -6.8046 19.1377 -2.0289 -16.7619 26.4870 -1.2729 7.1505 -20.1620 -0.4618 5.8455 -5.0441 -2.4245 7.9486 -1.3938 -1.7085 4.0099 1.6546 -2.9790 -1.3692 -29.1283 5.7586 -11.6281 46.7768 -0.4274 -5.3865 30.6772 -0.0000 0.0000 0.0000 -57.6205 36.7814 61.4818 125.6632 -54.6016 -90.3254 -0.0000 -0.0000 17.5733 12.8771 3.5823 0.8184 -7.1250 0.0000 -0.0000 -11.1951 33.4970 3.2096 -0.0000 0.0000 0.0000 79.6552 -9.3958 55.1272 -115.5331 57.3873 -81.9184 0.0000 0.0000 7.5548 -12.6131 0.5102 -0.1142 7.1250 -0.0000 -0.0000 10.8922 -29.3731 4.2186
1.0905 16.6993 -6.4830 -180.5260 1.4122 -168.9190 0.0000 0.0000 0.0000 -13.2011 -18.3339 -40.3824 4.4097 12.6865 38.2059 0.2291 10.9875 10.7953 0.1703 -2.6585 -7.3293 0.0000 0.0000 0.0000 25.2797 1.3375 12.5793 -1.2721 -7.1484 20.1556 -2.2510 -17.9122 27.9932 -1.0571 6.5374 -18.3518 -0.5491 5.8889 -5.5165 -2.4958 8.0303 -1.4997 -1.6816 4.0545 1.8083 -3.1680 -1.5087 -29.0744 5.9975 -11.9809 46.7595 -0.3587 -5.5259 30.8210 0.0000 -0.0000 0.0000 -57.2181 36.9304 61.7828 126.2740 -54.3920 -90.8226 -0.0000 -0.0000 17.6688 12.8041 3.6790 0.8355 -7.1250 0.0000 -0.0000 -11.2678 33.5914 3.2048 0.0000 -0.0000 0.0000 79.3262 -9.9443 55.5836 -116.2837 57.2216 -82.5500 0.0000 0.0000 7.5383 -12.3795 0.8023 -0.1761 7.1250 -0.0000 -0.0000 11.0413 -29.0771 4.3575
